<?xml version="1.0" encoding="UTF-8" standalone="no" ?>
<!DOCTYPE svg PUBLIC "-//W3C//DTD SVG 1.1//EN" "http://www.w3.org/Graphics/SVG/1.1/DTD/svg11.dtd">
<svg xmlns="http://www.w3.org/2000/svg" xmlns:xlink="http://www.w3.org/1999/xlink" version="1.1" width="591.8918835449219" height="261.8636" xml:space="preserve">
<desc>Created with Fabric.js 1.6.0-rc.1</desc>
<defs></defs>
  <g transform="translate(442.93 169.1) scale(3.18 3.18)">
   <text font-family="Dooodleista" font-size="40" font-weight="normal" style="stroke: none; stroke-width: 1; stroke-dasharray: none; stroke-linecap: butt; stroke-linejoin: miter; stroke-miterlimit: 10; fill: #006699; fill-rule: nonzero; opacity: 1;" ><tspan x="-44.2" y="8.98" style="stroke: none; stroke-width: 0; stroke-dasharray: none; stroke-linecap: butt; stroke-linejoin: miter; stroke-miterlimit: 4; fill: #006699; fill-rule: ; opacity: 1;">S</tspan><tspan x="-34.2" y="8.98" style="stroke: none; stroke-width: 0; stroke-dasharray: none; stroke-linecap: butt; stroke-linejoin: miter; stroke-miterlimit: 4; fill: #006699; fill-rule: ; opacity: 1;">l</tspan><tspan x="-23.08" y="8.98" style="stroke: none; stroke-width: 0; stroke-dasharray: none; stroke-linecap: butt; stroke-linejoin: miter; stroke-miterlimit: 4; fill: #006699; fill-rule: ; opacity: 1;">o</tspan><tspan x="-12.52" y="8.98" style="stroke: none; stroke-width: 0; stroke-dasharray: none; stroke-linecap: butt; stroke-linejoin: miter; stroke-miterlimit: 4; fill: #006699; fill-rule: ; opacity: 1;">t</tspan><tspan x="-0.28" y="8.98" style="stroke: none; stroke-width: 0; stroke-dasharray: none; stroke-linecap: butt; stroke-linejoin: miter; stroke-miterlimit: 4; fill: #006699; fill-rule: ; opacity: 1;">h</tspan><tspan x="10.84" y="8.98" style="stroke: none; stroke-width: 0; stroke-dasharray: none; stroke-linecap: butt; stroke-linejoin: miter; stroke-miterlimit: 4; fill: #006699; fill-rule: ; opacity: 1;">b</tspan><tspan x="21.4" y="8.98" style="stroke: none; stroke-width: 0; stroke-dasharray: none; stroke-linecap: butt; stroke-linejoin: miter; stroke-miterlimit: 4; fill: #006699; fill-rule: ; opacity: 1;">o</tspan><tspan x="31.96" y="8.98" style="stroke: none; stroke-width: 0; stroke-dasharray: none; stroke-linecap: butt; stroke-linejoin: miter; stroke-miterlimit: 4; fill: #006699; fill-rule: ; opacity: 1;">t</tspan></text>
 </g>
<g style="stroke: none; stroke-width: 1; stroke-dasharray: none; stroke-linecap: butt; stroke-linejoin: miter; stroke-miterlimit: 10; fill: none; fill-rule: nonzero; opacity: 1;" transform="translate(10 10) scale(0.73 0.73)" >
  <path d="M 268.538 309.561 c -31.518 0 -57.069 -25.551 -57.069 -57.069 V 188.1 c 0 -15.759 12.775 -28.535 28.534 -28.535 c 15.76 0 28.535 12.775 28.535 28.535 V 309.561 z" style="stroke: none; stroke-width: 1; stroke-dasharray: none; stroke-linecap: butt; stroke-linejoin: miter; stroke-miterlimit: 10; fill: #826940; fill-rule: nonzero; opacity: 1;" transform=" matrix(1 0 0 1 0 0) " stroke-linecap="round" />
  <path d="M 258.273 330.32 c 5.669 0 10.266 -4.597 10.266 -10.266 V 290.38 c 0 -2.835 -2.299 -5.132 -5.133 -5.132 c -2.836 0 -5.133 2.297 -5.133 5.132 V 330.32 z" style="stroke: none; stroke-width: 1; stroke-dasharray: none; stroke-linecap: butt; stroke-linejoin: miter; stroke-miterlimit: 10; fill: #BFAB6C; fill-rule: nonzero; opacity: 1;" transform=" matrix(1 0 0 1 0 0) " stroke-linecap="round" />
  <path d="M 244.595 330.32 c 5.67 0 10.266 -4.597 10.266 -10.266 V 290.38 c 0 -2.835 -2.298 -5.132 -5.132 -5.132 c -2.837 0 -5.134 2.297 -5.134 5.132 V 330.32 z" style="stroke: none; stroke-width: 1; stroke-dasharray: none; stroke-linecap: butt; stroke-linejoin: miter; stroke-miterlimit: 10; fill: #BFAB6C; fill-rule: nonzero; opacity: 1;" transform=" matrix(1 0 0 1 0 0) " stroke-linecap="round" />
  <path d="M 230.916 330.32 c 5.67 0 10.267 -4.597 10.267 -10.266 V 290.38 c 0 -2.835 -2.298 -5.132 -5.132 -5.132 c -2.836 0 -5.135 2.297 -5.135 5.132 V 330.32 z" style="stroke: none; stroke-width: 1; stroke-dasharray: none; stroke-linecap: butt; stroke-linejoin: miter; stroke-miterlimit: 10; fill: #BFAB6C; fill-rule: nonzero; opacity: 1;" transform=" matrix(1 0 0 1 0 0) " stroke-linecap="round" />
  <path d="M 151.468 309.561 c -31.519 0 -57.069 -25.551 -57.069 -57.069 V 188.1 c 0 -15.759 12.775 -28.535 28.534 -28.535 s 28.535 12.775 28.535 28.535 V 309.561 z" style="stroke: none; stroke-width: 1; stroke-dasharray: none; stroke-linecap: butt; stroke-linejoin: miter; stroke-miterlimit: 10; fill: #826940; fill-rule: nonzero; opacity: 1;" transform=" matrix(1 0 0 1 0 0) " stroke-linecap="round" />
  <path d="M 141.203 330.32 c 5.669 0 10.266 -4.597 10.266 -10.266 V 290.38 c 0 -2.835 -2.298 -5.132 -5.132 -5.132 c -2.835 0 -5.133 2.297 -5.133 5.132 v 39.94 H 141.203 z" style="stroke: none; stroke-width: 1; stroke-dasharray: none; stroke-linecap: butt; stroke-linejoin: miter; stroke-miterlimit: 10; fill: #BFAB6C; fill-rule: nonzero; opacity: 1;" transform=" matrix(1 0 0 1 0 0) " stroke-linecap="round" />
  <path d="M 127.525 330.32 c 5.669 0 10.266 -4.597 10.266 -10.266 V 290.38 c 0 -2.835 -2.298 -5.132 -5.133 -5.132 c -2.834 0 -5.133 2.297 -5.133 5.132 V 330.32 z" style="stroke: none; stroke-width: 1; stroke-dasharray: none; stroke-linecap: butt; stroke-linejoin: miter; stroke-miterlimit: 10; fill: #BFAB6C; fill-rule: nonzero; opacity: 1;" transform=" matrix(1 0 0 1 0 0) " stroke-linecap="round" />
  <path d="M 113.847 330.32 c 5.67 0 10.267 -4.597 10.267 -10.266 V 290.38 c 0 -2.835 -2.299 -5.132 -5.133 -5.132 c -2.835 0 -5.134 2.297 -5.134 5.132 C 113.847 290.38 113.847 330.32 113.847 330.32 z" style="stroke: none; stroke-width: 1; stroke-dasharray: none; stroke-linecap: butt; stroke-linejoin: miter; stroke-miterlimit: 10; fill: #BFAB6C; fill-rule: nonzero; opacity: 1;" transform=" matrix(1 0 0 1 0 0) " stroke-linecap="round" />
  <path d="M 359.349 204.341 H 0 v 46.271 h 288.383 l 41.658 41.66 c 1.645 1.645 3.8 2.466 5.956 2.466 c 2.154 0 4.311 -0.822 5.955 -2.466 c 3.289 -3.289 3.289 -8.622 0 -11.911 l -29.748 -29.749 h 47.145 L 359.349 204.341 L 359.349 204.341 z" style="stroke: none; stroke-width: 1; stroke-dasharray: none; stroke-linecap: butt; stroke-linejoin: miter; stroke-miterlimit: 10; fill: #65513C; fill-rule: nonzero; opacity: 1;" transform=" matrix(1 0 0 1 0 0) " stroke-linecap="round" />
  <path d="M 329.385 267.793 c -12.44 12.439 -12.44 32.605 0 45.043 c 12.438 12.439 32.603 12.439 45.043 0 L 329.385 267.793 z" style="stroke: none; stroke-width: 1; stroke-dasharray: none; stroke-linecap: butt; stroke-linejoin: miter; stroke-miterlimit: 10; fill: #05CE7C; fill-rule: nonzero; opacity: 1;" transform=" matrix(1 0 0 1 0 0) " stroke-linecap="round" />
  <path d="M 267.364 75.017 H 38.604 c -7.417 0 -13.43 6.012 -13.43 13.429 c 0 6.667 4.864 12.184 11.233 13.234 c -7.764 10.669 -12.355 23.794 -12.355 37.999 c 0 19.143 8.325 36.337 21.544 48.176 c -0.001 0.082 -0.006 0.164 -0.006 0.246 v 121.461 c 31.518 0 57.069 -25.551 57.069 -57.069 v -48.151 h 60 v 105.22 c 31.519 0 57.069 -25.551 57.069 -57.069 v -48.151 h 47.637 c 35.712 0 64.662 -28.95 64.662 -64.663 C 332.026 103.967 303.076 75.017 267.364 75.017 z" style="stroke: none; stroke-width: 1; stroke-dasharray: none; stroke-linecap: butt; stroke-linejoin: miter; stroke-miterlimit: 10; fill: #9C7F4D; fill-rule: nonzero; opacity: 1;" transform=" matrix(1 0 0 1 0 0) " stroke-linecap="round" />
  <path d="M 172.924 330.32 c -5.67 0 -10.266 -4.597 -10.266 -10.266 V 290.38 c 0 -2.835 2.298 -5.132 5.132 -5.132 c 2.835 0 5.133 2.297 5.133 5.132 v 39.94 H 172.924 z" style="stroke: none; stroke-width: 1; stroke-dasharray: none; stroke-linecap: butt; stroke-linejoin: miter; stroke-miterlimit: 10; fill: #FADF8D; fill-rule: nonzero; opacity: 1;" transform=" matrix(1 0 0 1 0 0) " stroke-linecap="round" />
  <path d="M 186.602 330.32 c -5.67 0 -10.266 -4.597 -10.266 -10.266 V 290.38 c 0 -2.835 2.298 -5.132 5.133 -5.132 c 2.835 0 5.133 2.297 5.133 5.132 L 186.602 330.32 L 186.602 330.32 z" style="stroke: none; stroke-width: 1; stroke-dasharray: none; stroke-linecap: butt; stroke-linejoin: miter; stroke-miterlimit: 10; fill: #FADF8D; fill-rule: nonzero; opacity: 1;" transform=" matrix(1 0 0 1 0 0) " stroke-linecap="round" />
  <path d="M 200.279 330.32 c -5.669 0 -10.266 -4.597 -10.266 -10.266 V 290.38 c 0 -2.835 2.298 -5.132 5.132 -5.132 c 2.835 0 5.134 2.297 5.134 5.132 V 330.32 z" style="stroke: none; stroke-width: 1; stroke-dasharray: none; stroke-linecap: butt; stroke-linejoin: miter; stroke-miterlimit: 10; fill: #FADF8D; fill-rule: nonzero; opacity: 1;" transform=" matrix(1 0 0 1 0 0) " stroke-linecap="round" />
  <path d="M 55.855 330.32 c -5.67 0 -10.266 -4.597 -10.266 -10.266 V 290.38 c 0 -2.835 2.298 -5.132 5.132 -5.132 c 2.835 0 5.133 2.297 5.133 5.132 L 55.855 330.32 L 55.855 330.32 z" style="stroke: none; stroke-width: 1; stroke-dasharray: none; stroke-linecap: butt; stroke-linejoin: miter; stroke-miterlimit: 10; fill: #FADF8D; fill-rule: nonzero; opacity: 1;" transform=" matrix(1 0 0 1 0 0) " stroke-linecap="round" />
  <path d="M 69.533 330.32 c -5.669 0 -10.266 -4.597 -10.266 -10.266 V 290.38 c 0 -2.835 2.298 -5.132 5.133 -5.132 c 2.835 0 5.133 2.297 5.133 5.132 C 69.533 290.38 69.533 330.32 69.533 330.32 z" style="stroke: none; stroke-width: 1; stroke-dasharray: none; stroke-linecap: butt; stroke-linejoin: miter; stroke-miterlimit: 10; fill: #FADF8D; fill-rule: nonzero; opacity: 1;" transform=" matrix(1 0 0 1 0 0) " stroke-linecap="round" />
  <path d="M 83.211 330.32 c -5.67 0 -10.267 -4.597 -10.267 -10.266 V 290.38 c 0 -2.835 2.299 -5.132 5.133 -5.132 s 5.133 2.297 5.133 5.132 L 83.211 330.32 L 83.211 330.32 z" style="stroke: none; stroke-width: 1; stroke-dasharray: none; stroke-linecap: butt; stroke-linejoin: miter; stroke-miterlimit: 10; fill: #FADF8D; fill-rule: nonzero; opacity: 1;" transform=" matrix(1 0 0 1 0 0) " stroke-linecap="round" />
  <circle cx="267.367" cy="124.227" r="80.117" style="stroke: none; stroke-width: 1; stroke-dasharray: none; stroke-linecap: butt; stroke-linejoin: miter; stroke-miterlimit: 10; fill: #967A4A; fill-rule: nonzero; opacity: 1;" transform="  matrix(1 0 0 1 0 0) "/>
  <path d="M 317.685 115.526 c 0 -27.791 -22.529 -50.32 -50.32 -50.32 s -50.32 22.529 -50.32 50.32 c 0 7.115 1.485 13.881 4.148 20.017 l -0.003 0.008 l 0.082 0.167 c 0.627 1.429 1.315 2.823 2.067 4.179 l 11.148 22.539 l 0.003 -0.001 c 5.831 12.3 18.357 20.809 32.875 20.809 c 14.518 0 27.044 -8.509 32.875 -20.809 l 0.002 0.002 l 11.153 -22.549 c 0.746 -1.346 1.429 -2.73 2.052 -4.148 l 0.094 -0.188 l -0.004 -0.01 C 316.199 129.407 317.685 122.642 317.685 115.526 z" style="stroke: none; stroke-width: 1; stroke-dasharray: none; stroke-linecap: butt; stroke-linejoin: miter; stroke-miterlimit: 10; fill: #9C7F4D; fill-rule: nonzero; opacity: 1;" transform=" matrix(1 0 0 1 0 0) " stroke-linecap="round" />
  <path d="M 246.079 112.795 c -3.073 -11.055 -14.524 -17.526 -25.579 -14.455 l -31.391 8.722 c -1.207 5.531 -1.862 11.269 -1.862 17.163 c 0 8.857 1.459 17.369 4.113 25.334 l 40.261 -11.186 C 242.677 135.302 249.148 123.85 246.079 112.795 z" style="stroke: none; stroke-width: 1; stroke-dasharray: none; stroke-linecap: butt; stroke-linejoin: miter; stroke-miterlimit: 10; fill: #333E48; fill-rule: nonzero; opacity: 1;" transform=" matrix(1 0 0 1 0 0) " stroke-linecap="round" />
  <circle cx="228.523" cy="115.85300000000001" r="7.673" style="stroke: none; stroke-width: 1; stroke-dasharray: none; stroke-linecap: butt; stroke-linejoin: miter; stroke-miterlimit: 10; fill: #5C6670; fill-rule: nonzero; opacity: 1;" transform="  matrix(1 0 0 1 0 0) "/>
  <path d="M 288.65 112.795 c 3.073 -11.055 14.524 -17.526 25.578 -14.455 l 31.39 8.722 c 1.209 5.531 1.863 11.269 1.863 17.163 c 0 8.857 -1.459 17.369 -4.112 25.334 l -40.263 -11.186 C 292.053 135.302 285.58 123.85 288.65 112.795 z" style="stroke: none; stroke-width: 1; stroke-dasharray: none; stroke-linecap: butt; stroke-linejoin: miter; stroke-miterlimit: 10; fill: #333E48; fill-rule: nonzero; opacity: 1;" transform=" matrix(1 0 0 1 0 0) " stroke-linecap="round" />
  <circle cx="306.203" cy="115.85300000000001" r="7.673" style="stroke: none; stroke-width: 1; stroke-dasharray: none; stroke-linecap: butt; stroke-linejoin: miter; stroke-miterlimit: 10; fill: #5C6670; fill-rule: nonzero; opacity: 1;" transform="  matrix(1 0 0 1 0 0) "/>
  <path d="M 274.66 146.773 c -3.411 3.539 -9.097 3.639 -12.632 0.225 l -3.944 -3.808 c -3.537 -3.414 -2.407 -6.207 2.508 -6.207 h 14.574 c 4.915 0 6.145 2.895 2.732 6.433 L 274.66 146.773 z" style="stroke: none; stroke-width: 1; stroke-dasharray: none; stroke-linecap: butt; stroke-linejoin: miter; stroke-miterlimit: 10; fill: #333E48; fill-rule: nonzero; opacity: 1;" transform=" matrix(1 0 0 1 0 0) " stroke-linecap="round" />
</g>
</svg>