<svg height="512" viewBox="0 0 64 64" width="512" xmlns="http://www.w3.org/2000/svg"><g id="online_support" data-name="online support"><path d="m61.788 56.385a1 1 0 0 0 -.788-.385h-25a1 1 0 0 0 -1 1v1h-6v-1a1 1 0 0 0 -1-1h-25a1 1 0 0 0 -.97 1.243l.621 2.485a3 3 0 0 0 2.911 2.272h52.876a3 3 0 0 0 2.911-2.272l.621-2.485a1 1 0 0 0 -.182-.858zm-56.226 3.615a1 1 0 0 1 -.971-.758l-.31-1.242h22.719v1a1 1 0 0 0 1 1zm53.847-.758a1 1 0 0 1 -.971.758h-22.438a1 1 0 0 0 1-1v-1h22.719z"/><path d="m57 18h-8v-11a5 5 0 0 0 -5-5h-24a5 5 0 0 0 -5 5v11h-8a3.009 3.009 0 0 0 -3 3v30a3.009 3.009 0 0 0 3 3h50a3.009 3.009 0 0 0 3-3v-30a3.009 3.009 0 0 0 -3-3zm-40-11a3.009 3.009 0 0 1 3-3h24a3.009 3.009 0 0 1 3 3v11h-3.28a7 7 0 0 0 1.28-4v-7a1 1 0 0 0 -1-1h-16a9.014 9.014 0 0 0 -9 9v2a4.091 4.091 0 0 0 .14 1h-2.14zm21.24 24a8 8 0 0 1 -14.24-5v-7.34l5.8-2.48a2.94 2.94 0 0 1 -.53 1.14 5.038 5.038 0 0 1 -.52.45 1.4 1.4 0 0 0 -.7 1.53 1.332 1.332 0 0 0 .95.86 7.2 7.2 0 0 0 5.6-1.36 6.049 6.049 0 0 0 1.18-1.19l4.22 1.15v7.24a7.9 7.9 0 0 1 -.59 3h-7.41v2zm-3.84 7.8 2.78 2.09-5.18 2.96-5.18-2.96 2.78-2.09a1.014 1.014 0 0 0 .4-.8v-2.2a10.1 10.1 0 0 0 4 0v2.2a1.014 1.014 0 0 0 .4.8zm1.22-23.3a.983.983 0 0 0 -1.11.44 4.485 4.485 0 0 1 -1.12 1.27 5.479 5.479 0 0 1 -2.28.99 7.362 7.362 0 0 0 .89-3.11 1 1 0 0 0 -1-1.09h-1a1.006 1.006 0 0 0 -.39.08l-7 3a1 1 0 0 0 -.61.92v.72a1.988 1.988 0 0 1 -1-1.72v-2a7.008 7.008 0 0 1 7-7h15v6a4.971 4.971 0 0 1 -1.28 3.32.942.942 0 0 0 -.46-.28zm-13.62 6.5v3a1 1 0 0 1 -1-1v-1a1 1 0 0 1 1-1zm20 0a1 1 0 0 1 1 1v1a1 1 0 0 1 -1 1zm-.05 5h.05a3.009 3.009 0 0 0 3-3h2v2a3.009 3.009 0 0 1 -3 3h-2.46a10.137 10.137 0 0 0 .41-2zm2.87-5a3.01 3.01 0 0 0 -2.82-2h5v2zm-27.82-2h3.38c.12.1.23.2.35.29a3 3 0 0 0 -1.55 1.71h-2.18zm-3 25v7h-7a1 1 0 0 1 -1-1v-30a1 1 0 0 1 1-1h8v3a1 1 0 0 0 1 1h3a3.009 3.009 0 0 0 3 3h.05a10.024 10.024 0 0 0 5.95 8.16v2.34l-3.33 2.5h-5.67a5 5 0 0 0 -5 5zm34 7h-32v-7a3.009 3.009 0 0 1 3-3h5.73l6.77 3.87a1.044 1.044 0 0 0 1 0l6.77-3.87h5.73a3.009 3.009 0 0 1 3 3zm10-1a1 1 0 0 1 -1 1h-7v-7a5 5 0 0 0 -5-5h-5.67l-3.33-2.5v-2.34a10.1 10.1 0 0 0 4.65-4.16h3.35a5 5 0 0 0 5-5v-6h8a1 1 0 0 1 1 1z"/><path d="m54 22h2v2h-2z"/><path d="m54 26h2v2h-2z"/><path d="m54 30h2v2h-2z"/><path d="m8 40h2v2h-2z"/><path d="m8 44h2v2h-2z"/><path d="m8 48h2v2h-2z"/></g></svg>